<mxfile host="app.diagrams.net" modified="2023-10-30T15:57:35.224Z" agent="Mozilla/5.0 (Windows NT 10.0; Win64; x64) AppleWebKit/537.36 (KHTML, like Gecko) Chrome/116.0.0.0 Whale/3.22.205.26 Safari/537.36" etag="SFeiZW8jD56lhPVM7Rgh" version="22.0.8" type="github">
  <diagram id="C5RBs43oDa-KdzZeNtuy" name="Page-1">
    <mxGraphModel dx="1875" dy="2269" grid="1" gridSize="10" guides="1" tooltips="1" connect="1" arrows="1" fold="1" page="1" pageScale="1" pageWidth="827" pageHeight="1169" math="0" shadow="0">
      <root>
        <mxCell id="WIyWlLk6GJQsqaUBKTNV-0" />
        <mxCell id="WIyWlLk6GJQsqaUBKTNV-1" parent="WIyWlLk6GJQsqaUBKTNV-0" />
        <mxCell id="zqmrrOwO1yDx4aTtgtYs-6" style="edgeStyle=orthogonalEdgeStyle;rounded=0;orthogonalLoop=1;jettySize=auto;html=1;exitX=0.5;exitY=1;exitDx=0;exitDy=0;entryX=0.5;entryY=0;entryDx=0;entryDy=0;" edge="1" parent="WIyWlLk6GJQsqaUBKTNV-1" source="zqmrrOwO1yDx4aTtgtYs-0" target="zqmrrOwO1yDx4aTtgtYs-3">
          <mxGeometry relative="1" as="geometry" />
        </mxCell>
        <mxCell id="zqmrrOwO1yDx4aTtgtYs-0" value="게임 시작" style="rounded=1;whiteSpace=wrap;html=1;arcSize=50;" vertex="1" parent="WIyWlLk6GJQsqaUBKTNV-1">
          <mxGeometry x="353" y="60" width="120" height="60" as="geometry" />
        </mxCell>
        <mxCell id="zqmrrOwO1yDx4aTtgtYs-7" style="edgeStyle=orthogonalEdgeStyle;rounded=0;orthogonalLoop=1;jettySize=auto;html=1;exitX=0.5;exitY=1;exitDx=0;exitDy=0;entryX=0.5;entryY=0;entryDx=0;entryDy=0;" edge="1" parent="WIyWlLk6GJQsqaUBKTNV-1" source="zqmrrOwO1yDx4aTtgtYs-3" target="zqmrrOwO1yDx4aTtgtYs-4">
          <mxGeometry relative="1" as="geometry" />
        </mxCell>
        <mxCell id="zqmrrOwO1yDx4aTtgtYs-3" value="메뉴" style="rounded=1;whiteSpace=wrap;html=1;" vertex="1" parent="WIyWlLk6GJQsqaUBKTNV-1">
          <mxGeometry x="353" y="140" width="120" height="60" as="geometry" />
        </mxCell>
        <mxCell id="zqmrrOwO1yDx4aTtgtYs-9" value="" style="edgeStyle=orthogonalEdgeStyle;rounded=0;orthogonalLoop=1;jettySize=auto;html=1;" edge="1" parent="WIyWlLk6GJQsqaUBKTNV-1" source="zqmrrOwO1yDx4aTtgtYs-4" target="zqmrrOwO1yDx4aTtgtYs-8">
          <mxGeometry relative="1" as="geometry" />
        </mxCell>
        <mxCell id="zqmrrOwO1yDx4aTtgtYs-4" value="방 생성" style="rounded=1;whiteSpace=wrap;html=1;" vertex="1" parent="WIyWlLk6GJQsqaUBKTNV-1">
          <mxGeometry x="353" y="220" width="120" height="60" as="geometry" />
        </mxCell>
        <mxCell id="zqmrrOwO1yDx4aTtgtYs-11" value="" style="edgeStyle=orthogonalEdgeStyle;rounded=0;orthogonalLoop=1;jettySize=auto;html=1;" edge="1" parent="WIyWlLk6GJQsqaUBKTNV-1" source="zqmrrOwO1yDx4aTtgtYs-8" target="zqmrrOwO1yDx4aTtgtYs-10">
          <mxGeometry relative="1" as="geometry" />
        </mxCell>
        <mxCell id="zqmrrOwO1yDx4aTtgtYs-8" value="인원 충족시 &lt;br&gt;게임 시작" style="whiteSpace=wrap;html=1;rounded=1;" vertex="1" parent="WIyWlLk6GJQsqaUBKTNV-1">
          <mxGeometry x="353" y="300" width="120" height="60" as="geometry" />
        </mxCell>
        <mxCell id="zqmrrOwO1yDx4aTtgtYs-46" value="" style="edgeStyle=orthogonalEdgeStyle;rounded=0;orthogonalLoop=1;jettySize=auto;html=1;" edge="1" parent="WIyWlLk6GJQsqaUBKTNV-1" source="zqmrrOwO1yDx4aTtgtYs-10">
          <mxGeometry relative="1" as="geometry">
            <mxPoint x="413.5" y="470" as="targetPoint" />
          </mxGeometry>
        </mxCell>
        <mxCell id="zqmrrOwO1yDx4aTtgtYs-10" value="게임 종목 투표&lt;br&gt;또는 랜덤" style="whiteSpace=wrap;html=1;rounded=1;" vertex="1" parent="WIyWlLk6GJQsqaUBKTNV-1">
          <mxGeometry x="353" y="380" width="120" height="60" as="geometry" />
        </mxCell>
        <mxCell id="zqmrrOwO1yDx4aTtgtYs-21" value="전기 피하기&amp;nbsp;" style="swimlane;whiteSpace=wrap;html=1;" vertex="1" parent="WIyWlLk6GJQsqaUBKTNV-1">
          <mxGeometry x="-180" y="20" width="370" height="120" as="geometry" />
        </mxCell>
        <mxCell id="zqmrrOwO1yDx4aTtgtYs-23" value="&lt;div style=&quot;&quot;&gt;&lt;span style=&quot;background-color: initial;&quot;&gt;1. 전기 줄로 이뤄진 링 안에서 전기 구체를 피하기&lt;/span&gt;&lt;/div&gt;&lt;div style=&quot;&quot;&gt;&lt;span style=&quot;background-color: initial;&quot;&gt;2. 전기 구체가 전기 줄에 닿으면 해당 위치~맞은 편 정전기 발생&lt;/span&gt;&lt;/div&gt;&lt;div style=&quot;&quot;&gt;&lt;span style=&quot;background-color: initial;&quot;&gt;3. 전기 구체는 한번 튕길때마다 속도가 점진적으로 증가&lt;/span&gt;&lt;/div&gt;&lt;div style=&quot;&quot;&gt;&lt;span style=&quot;background-color: initial;&quot;&gt;4.&amp;nbsp;&lt;/span&gt;&lt;span style=&quot;background-color: initial;&quot;&gt;한명이 남거나 모두 탈락할때까지 진행&lt;/span&gt;&lt;/div&gt;" style="text;html=1;strokeColor=none;fillColor=none;align=left;verticalAlign=middle;whiteSpace=wrap;rounded=0;" vertex="1" parent="zqmrrOwO1yDx4aTtgtYs-21">
          <mxGeometry y="30" width="370" height="80" as="geometry" />
        </mxCell>
        <mxCell id="zqmrrOwO1yDx4aTtgtYs-48" value="" style="rounded=1;whiteSpace=wrap;html=1;fillColor=none;dashed=1;arcSize=4;strokeWidth=3;strokeColor=#FF2D26;" vertex="1" parent="zqmrrOwO1yDx4aTtgtYs-21">
          <mxGeometry x="-20" y="-20" width="410" height="1140" as="geometry" />
        </mxCell>
        <mxCell id="zqmrrOwO1yDx4aTtgtYs-30" value="술래잡기" style="swimlane;whiteSpace=wrap;html=1;" vertex="1" parent="WIyWlLk6GJQsqaUBKTNV-1">
          <mxGeometry x="-180" y="160" width="370" height="120" as="geometry" />
        </mxCell>
        <mxCell id="zqmrrOwO1yDx4aTtgtYs-31" value="&lt;div style=&quot;text-align: left;&quot;&gt;&lt;span style=&quot;background-color: initial;&quot;&gt;1. 괴물에게 잡혀선 안됨&lt;/span&gt;&lt;/div&gt;&lt;div style=&quot;text-align: left;&quot;&gt;&lt;span style=&quot;background-color: initial;&quot;&gt;2. 괴물은 일정 주기마다 타겟이 바뀜&lt;/span&gt;&lt;/div&gt;&lt;div style=&quot;text-align: left;&quot;&gt;&lt;span style=&quot;background-color: initial;&quot;&gt;3. 각 플레이어는 타겟 바꾸기 1회, 근처에 보이는 타겟에게 그물을 던져 멈출수 있음&lt;/span&gt;&lt;/div&gt;&lt;div style=&quot;text-align: left;&quot;&gt;4. 한명이 남을때까지 진행&lt;br&gt;&lt;/div&gt;" style="text;html=1;strokeColor=none;fillColor=none;align=center;verticalAlign=middle;whiteSpace=wrap;rounded=0;" vertex="1" parent="zqmrrOwO1yDx4aTtgtYs-30">
          <mxGeometry y="30" width="370" height="80" as="geometry" />
        </mxCell>
        <mxCell id="zqmrrOwO1yDx4aTtgtYs-32" value="의자 뺏기" style="swimlane;whiteSpace=wrap;html=1;" vertex="1" parent="WIyWlLk6GJQsqaUBKTNV-1">
          <mxGeometry x="-180" y="300" width="370" height="120" as="geometry" />
        </mxCell>
        <mxCell id="zqmrrOwO1yDx4aTtgtYs-33" value="&lt;div style=&quot;&quot;&gt;&lt;span style=&quot;background-color: initial;&quot;&gt;1. 의자에 앉아야함&lt;/span&gt;&lt;/div&gt;&lt;div style=&quot;&quot;&gt;&lt;span style=&quot;background-color: initial;&quot;&gt;2. 의자에 앉지 못한 플레이어는 탈락&lt;/span&gt;&lt;/div&gt;&lt;div style=&quot;&quot;&gt;4. 한명이 남을때까지 반복 진행&lt;br&gt;&lt;/div&gt;" style="text;html=1;strokeColor=none;fillColor=none;align=left;verticalAlign=middle;whiteSpace=wrap;rounded=0;" vertex="1" parent="zqmrrOwO1yDx4aTtgtYs-32">
          <mxGeometry y="30" width="370" height="80" as="geometry" />
        </mxCell>
        <mxCell id="zqmrrOwO1yDx4aTtgtYs-34" value="야바위" style="swimlane;whiteSpace=wrap;html=1;" vertex="1" parent="WIyWlLk6GJQsqaUBKTNV-1">
          <mxGeometry x="-180" y="440" width="370" height="120" as="geometry" />
        </mxCell>
        <mxCell id="zqmrrOwO1yDx4aTtgtYs-35" value="&lt;div style=&quot;&quot;&gt;&lt;span style=&quot;background-color: initial;&quot;&gt;1. 동전이 들어간 컵을 찾아야함&lt;/span&gt;&lt;/div&gt;&lt;div style=&quot;&quot;&gt;&lt;span style=&quot;background-color: initial;&quot;&gt;2. 찾지 못할시 탈락&lt;/span&gt;&lt;/div&gt;&lt;div style=&quot;&quot;&gt;&lt;span style=&quot;background-color: initial;&quot;&gt;3. 섞는 속도는 턴이 지날때마다 점진적으로 빨라짐&lt;/span&gt;&lt;/div&gt;&lt;div style=&quot;&quot;&gt;&lt;span style=&quot;background-color: initial;&quot;&gt;4. 각 플레이어는 1 2 3번이 적힌 발판위에 올라서야하고, 매 턴마다 상대를 속일수 있는 능력이 존재함&lt;/span&gt;&lt;/div&gt;&lt;div style=&quot;&quot;&gt;5. 한명이 남거나 모두 탈락할때까지 진행&lt;br&gt;&lt;/div&gt;" style="text;html=1;strokeColor=none;fillColor=none;align=left;verticalAlign=middle;whiteSpace=wrap;rounded=0;" vertex="1" parent="zqmrrOwO1yDx4aTtgtYs-34">
          <mxGeometry y="30" width="370" height="80" as="geometry" />
        </mxCell>
        <mxCell id="zqmrrOwO1yDx4aTtgtYs-36" value="유리 다리 건너기" style="swimlane;whiteSpace=wrap;html=1;" vertex="1" parent="WIyWlLk6GJQsqaUBKTNV-1">
          <mxGeometry x="-180" y="580" width="370" height="120" as="geometry" />
        </mxCell>
        <mxCell id="zqmrrOwO1yDx4aTtgtYs-37" value="&lt;div style=&quot;&quot;&gt;&lt;span style=&quot;background-color: initial;&quot;&gt;1. 유저들은 유리다리를 건널 수 있음&lt;/span&gt;&lt;/div&gt;&lt;div style=&quot;&quot;&gt;&lt;span style=&quot;background-color: initial;&quot;&gt;2. 단, 떨어지게 되면 3초 후에 부활함&lt;/span&gt;&lt;/div&gt;&lt;div style=&quot;&quot;&gt;&lt;span style=&quot;background-color: initial;&quot;&gt;3. 2분내에 통과 못할시 모두 탈락&lt;/span&gt;&lt;/div&gt;&lt;div style=&quot;&quot;&gt;&lt;span style=&quot;background-color: initial;&quot;&gt;4. 한명이 남거나 모두 탈락할때까지 진행&lt;/span&gt;&lt;/div&gt;" style="text;html=1;strokeColor=none;fillColor=none;align=left;verticalAlign=middle;whiteSpace=wrap;rounded=0;" vertex="1" parent="zqmrrOwO1yDx4aTtgtYs-36">
          <mxGeometry y="30" width="370" height="80" as="geometry" />
        </mxCell>
        <mxCell id="zqmrrOwO1yDx4aTtgtYs-38" value="베스킨라빈스 31" style="swimlane;whiteSpace=wrap;html=1;" vertex="1" parent="WIyWlLk6GJQsqaUBKTNV-1">
          <mxGeometry x="-180" y="720" width="370" height="120" as="geometry" />
        </mxCell>
        <mxCell id="zqmrrOwO1yDx4aTtgtYs-39" value="&lt;div style=&quot;&quot;&gt;&lt;span style=&quot;background-color: initial;&quot;&gt;1. 31을 선택하게 되면 탈락&lt;/span&gt;&lt;/div&gt;&lt;div style=&quot;&quot;&gt;&lt;span style=&quot;background-color: initial;&quot;&gt;2. 랜덤으로 순번정해진후 시작&lt;/span&gt;&lt;/div&gt;&lt;div style=&quot;&quot;&gt;&lt;span style=&quot;background-color: initial;&quot;&gt;4. 한명이 남을때까지 진행&lt;/span&gt;&lt;/div&gt;" style="text;html=1;strokeColor=none;fillColor=none;align=left;verticalAlign=middle;whiteSpace=wrap;rounded=0;" vertex="1" parent="zqmrrOwO1yDx4aTtgtYs-38">
          <mxGeometry y="30" width="370" height="80" as="geometry" />
        </mxCell>
        <mxCell id="zqmrrOwO1yDx4aTtgtYs-40" value="절벽에 떨어뜨리기" style="swimlane;whiteSpace=wrap;html=1;" vertex="1" parent="WIyWlLk6GJQsqaUBKTNV-1">
          <mxGeometry x="-180" y="860" width="370" height="120" as="geometry" />
        </mxCell>
        <mxCell id="zqmrrOwO1yDx4aTtgtYs-41" value="&lt;div style=&quot;&quot;&gt;&lt;span style=&quot;background-color: initial;&quot;&gt;1. 점점 좁아지는 땅에서 상대방을 밀어서 살아남아라&lt;/span&gt;&lt;/div&gt;&lt;div style=&quot;&quot;&gt;&lt;span style=&quot;background-color: initial;&quot;&gt;2. 한명이 남을때까지 진행&lt;/span&gt;&lt;/div&gt;" style="text;html=1;strokeColor=none;fillColor=none;align=left;verticalAlign=middle;whiteSpace=wrap;rounded=0;" vertex="1" parent="zqmrrOwO1yDx4aTtgtYs-40">
          <mxGeometry y="30" width="370" height="80" as="geometry" />
        </mxCell>
        <mxCell id="zqmrrOwO1yDx4aTtgtYs-42" value="투우" style="swimlane;whiteSpace=wrap;html=1;" vertex="1" parent="WIyWlLk6GJQsqaUBKTNV-1">
          <mxGeometry x="-180" y="1000" width="370" height="120" as="geometry" />
        </mxCell>
        <mxCell id="zqmrrOwO1yDx4aTtgtYs-43" value="&lt;div style=&quot;&quot;&gt;&lt;span style=&quot;background-color: initial;&quot;&gt;1. 점점 빨라지는 소를 피해라!&lt;/span&gt;&lt;/div&gt;&lt;div style=&quot;&quot;&gt;&lt;span style=&quot;background-color: initial;&quot;&gt;2. 붉은 망토를 다른 플레이어들에게 넘기기&lt;/span&gt;&lt;/div&gt;&lt;div style=&quot;&quot;&gt;&lt;span style=&quot;background-color: initial;&quot;&gt;3. 한명이 남을때까지 진행&lt;/span&gt;&lt;/div&gt;" style="text;html=1;strokeColor=none;fillColor=none;align=left;verticalAlign=middle;whiteSpace=wrap;rounded=0;" vertex="1" parent="zqmrrOwO1yDx4aTtgtYs-42">
          <mxGeometry y="30" width="370" height="80" as="geometry" />
        </mxCell>
        <mxCell id="zqmrrOwO1yDx4aTtgtYs-49" style="edgeStyle=orthogonalEdgeStyle;rounded=0;orthogonalLoop=1;jettySize=auto;html=1;entryX=0;entryY=0.5;entryDx=0;entryDy=0;exitX=1.01;exitY=0.36;exitDx=0;exitDy=0;exitPerimeter=0;strokeWidth=3;strokeColor=#FF2F05;dashed=1;" edge="1" parent="WIyWlLk6GJQsqaUBKTNV-1" source="zqmrrOwO1yDx4aTtgtYs-48" target="zqmrrOwO1yDx4aTtgtYs-10">
          <mxGeometry relative="1" as="geometry">
            <Array as="points">
              <mxPoint x="320" y="410" />
              <mxPoint x="320" y="410" />
            </Array>
          </mxGeometry>
        </mxCell>
      </root>
    </mxGraphModel>
  </diagram>
</mxfile>
